<?xml version="1.0" encoding="utf-8"?>
<!DOCTYPE svg PUBLIC "-//W3C//DTD SVG 1.1//EN" "http://www.w3.org/Graphics/SVG/1.1/DTD/svg11.dtd">
<svg class="yu" version="1.1"
    xmlns="http://www.w3.org/2000/svg" width="160" height="160" viewBox="0 0 160 160">
    <g transform="scale(0.303,0.303)">
        <g transform="translate(0,0)">
            <g transform="translate(0,0)">
                <g transform="translate(0,0) scale(1,1)">

                    <path fill="#6c91ee"
                        d=" M 185.48 64.76 C 192.71 63.61 199.97 62.42 206.92 60.03 C 212.40 67.09 220.68 70.43 229.20 72.16 C 235.15 72.99 239.42 77.56 244.62 80.11 C 251.60 82.21 254.38 89.64 257.00 95.69 C 247.40 102.40 237.85 109.20 228.28 115.95 C 236.69 119.06 245.47 121.73 252.60 127.42 C 263.68 136.27 275.16 144.73 284.83 155.17 C 294.66 165.50 307.65 171.79 319.28 179.73 C 328.73 186.41 338.79 192.14 348.51 198.39 C 353.39 201.54 359.76 201.16 364.49 204.49 C 374.43 215.99 391.44 215.16 404.21 221.66 C 414.20 226.83 425.47 228.88 435.14 234.72 C 442.02 238.80 450.23 237.91 457.83 239.10 C 460.95 240.11 463.63 242.13 466.52 243.64 C 471.36 246.59 477.20 247.28 482.16 250.00 C 485.19 251.97 487.90 254.40 490.60 256.81 C 486.93 259.83 483.01 262.64 478.63 264.54 C 470.83 267.19 462.11 265.98 454.55 269.41 C 448.80 271.83 442.44 272.09 436.44 273.60 C 431.81 274.46 427.26 275.92 422.54 276.12 C 416.27 276.60 410.13 274.31 403.88 275.25 C 393.33 277.05 382.45 272.99 372.15 276.73 C 364.74 270.85 358.73 263.59 352.43 256.65 C 339.70 249.05 331.56 236.05 320.66 226.30 C 317.65 222.95 312.94 221.59 310.35 217.85 C 303.52 205.45 292.58 196.18 283.10 185.91 C 273.73 178.22 265.59 169.05 259.16 158.76 C 248.92 146.67 235.32 137.64 220.27 132.68 C 206.02 152.30 196.04 174.75 180.45 193.42 C 173.90 201.88 166.93 210.02 160.73 218.75 C 151.98 230.89 140.22 240.42 128.58 249.66 C 119.66 257.34 111.67 266.23 101.61 272.51 C 96.25 275.91 89.40 277.80 86.07 283.69 C 79.22 283.35 74.62 289.32 68.67 291.58 C 59.09 294.83 48.48 298.28 38.48 294.74 C 53.74 281.66 68.98 268.41 82.18 253.19 C 94.20 239.22 107.79 226.66 119.08 212.06 C 126.99 202.02 135.76 192.66 143.28 182.31 C 149.32 171.95 155.60 161.69 160.87 150.91 C 171.22 125.67 191.34 105.75 200.96 80.19 C 195.94 74.91 190.27 70.27 185.48 64.76 Z" />
                    <path fill="#6c91ee"
                        d=" M 219.85 215.83 C 229.61 214.15 239.57 213.37 249.47 214.06 C 257.95 213.73 265.70 217.45 273.59 220.01 C 272.11 223.75 270.26 227.40 269.49 231.37 C 269.27 237.34 265.00 243.27 259.16 244.79 C 254.25 245.52 249.27 245.73 244.32 246.16 C 242.84 250.35 240.31 254.07 238.66 258.17 C 238.47 261.99 239.96 265.70 240.43 269.47 C 242.69 274.21 239.52 278.39 237.84 282.56 C 251.42 284.05 264.90 282.40 278.17 279.69 C 285.52 281.21 292.99 283.24 299.90 286.32 C 304.41 289.91 308.55 293.97 313.21 297.39 C 312.72 300.13 312.77 303.06 311.57 305.62 C 303.81 310.87 294.75 315.20 285.16 314.80 C 273.36 314.16 261.51 314.18 249.78 312.67 C 246.98 312.30 243.09 313.17 242.43 316.38 C 241.38 327.89 242.43 339.46 242.72 350.99 C 243.15 358.99 242.91 367.18 244.96 374.99 C 247.23 383.08 246.56 391.58 247.87 399.83 C 250.37 417.91 249.66 436.56 243.98 453.99 C 240.89 462.53 232.64 469.40 223.15 467.95 C 212.97 459.75 206.51 447.91 196.72 439.28 C 192.58 435.84 187.42 433.99 183.11 430.84 C 179.05 425.71 176.64 418.62 169.89 416.29 C 170.51 414.57 171.16 412.86 171.82 411.16 C 178.86 413.22 186.05 414.84 193.36 415.52 C 199.45 415.69 205.46 414.23 211.45 413.39 C 212.85 406.12 213.63 398.74 214.17 391.36 C 215.21 379.77 211.22 368.29 212.81 356.69 C 214.62 345.94 211.32 335.29 209.85 324.72 C 202.19 323.43 194.30 323.40 186.85 325.80 C 173.74 328.30 158.34 330.57 146.76 322.24 C 145.31 321.33 143.90 320.36 142.49 319.40 C 150.92 313.26 159.65 306.98 169.73 303.88 C 178.04 301.91 186.32 299.69 194.74 298.21 C 199.80 297.40 206.67 298.07 209.47 292.61 C 212.05 283.58 210.18 274.30 207.61 265.52 C 207.11 259.84 202.69 255.67 197.99 253.10 C 188.36 250.34 178.08 251.92 168.39 249.45 C 164.73 247.36 161.28 244.74 158.96 241.17 C 167.39 237.70 173.53 229.83 182.91 228.48 C 189.49 227.86 195.60 225.26 202.00 223.83 C 208.44 222.26 213.13 216.74 219.85 215.83 Z" />
                    <path fill="#6c91ee"
                        d=" M 119.47 358.44 C 126.45 349.88 125.54 337.83 132.08 328.98 C 142.07 339.53 146.45 353.81 148.78 367.81 C 150.23 373.44 152.93 378.86 152.47 384.85 C 151.88 392.46 149.94 399.91 147.98 407.27 C 143.06 414.16 137.36 420.48 132.55 427.46 C 125.75 426.27 118.11 425.25 113.05 420.06 C 111.05 416.48 109.22 412.25 110.13 408.07 C 112.54 394.82 113.64 381.27 112.68 367.83 C 112.22 363.40 117.16 361.45 119.47 358.44 Z" />
                    <path fill="#6c91ee"
                        d=" M 279.81 340.18 C 289.83 342.32 299.83 344.75 310.07 345.70 C 315.91 346.73 322.75 346.43 327.51 350.54 C 336.60 358.10 348.80 362.38 355.08 372.93 C 359.78 381.46 366.41 390.29 365.58 400.53 C 360.76 404.96 356.43 410.41 350.40 413.28 C 341.90 414.99 333.59 410.07 328.19 403.82 C 320.02 394.80 310.30 387.02 303.42 376.91 C 300.66 367.54 289.31 364.92 285.93 356.05 C 283.72 350.83 281.82 345.48 279.81 340.18 Z" />
                </g>
            </g>
        </g>
    </g>
</svg>