<?xml version="1.0" encoding="utf-8"?>
<!DOCTYPE svg PUBLIC "-//W3C//DTD SVG 1.1//EN" "http://www.w3.org/Graphics/SVG/1.1/DTD/svg11.dtd">
<svg class="nuo" version="1.1"
    xmlns="http://www.w3.org/2000/svg" width="160" height="160" viewBox="0 0 160 160">
    <g transform="scale(0.303,0.303)">
        <g transform="translate(0,0)">
            <g transform="translate(0,0)">
                <g transform="translate(0,0) scale(1,1)">

                    <path fill="#79bbdc"
                        d=" M 341.07 73.10 C 342.47 70.77 345.41 67.88 348.25 69.74 C 357.79 75.07 367.02 81.31 374.72 89.12 C 385.03 101.93 379.07 119.04 379.16 133.86 C 387.64 137.91 397.15 134.13 405.85 132.57 C 414.82 130.38 423.79 133.36 432.74 134.07 C 438.67 134.10 444.27 140.08 442.18 146.02 C 440.30 152.08 436.15 160.26 428.44 158.39 C 418.64 157.88 408.82 157.36 399.02 157.87 C 390.98 156.86 381.63 155.07 374.78 160.77 C 367.95 170.35 367.10 182.58 361.84 192.94 C 357.60 201.86 350.31 208.68 344.84 216.78 C 342.06 216.19 339.24 215.62 336.45 215.12 C 335.23 216.56 334.00 217.99 332.75 219.40 C 327.49 205.28 332.99 190.73 334.42 176.52 C 335.94 172.04 333.46 168.16 331.22 164.62 C 317.50 167.50 303.76 170.42 290.32 174.42 C 288.44 176.70 288.48 179.96 287.55 182.59 C 285.64 192.14 282.30 201.34 277.94 210.02 C 275.95 213.92 270.02 213.74 267.22 210.76 C 259.49 203.92 256.82 193.66 253.99 184.18 C 246.62 186.51 238.91 190.39 230.99 187.97 C 220.58 184.80 211.36 178.20 203.95 170.31 C 208.03 168.54 212.03 166.40 216.45 165.60 C 228.75 163.49 240.90 160.18 252.39 155.27 C 251.80 139.37 247.13 124.08 242.48 109.00 C 240.50 103.08 240.81 96.52 242.67 90.62 C 244.14 86.55 249.26 86.68 252.85 87.19 C 264.76 89.88 273.11 99.45 280.80 108.16 C 287.54 120.74 286.26 135.41 287.75 149.17 C 303.90 149.56 319.83 146.42 335.40 142.41 C 341.02 125.36 344.34 106.81 340.17 89.04 C 339.51 83.82 337.91 77.82 341.07 73.10 Z" />
                    <path fill="#79bbdc"
                        d=" M 185.23 96.98 C 194.31 99.43 202.06 105.11 209.97 110.02 C 209.99 115.37 210.01 120.73 210.03 126.09 C 196.88 136.92 179.35 138.39 163.13 140.43 C 159.76 140.94 156.38 140.12 153.38 138.59 C 147.04 135.44 140.38 132.71 134.89 128.12 C 128.56 121.91 122.88 114.87 119.19 106.76 C 128.60 102.92 138.90 103.43 148.84 102.51 C 160.83 99.97 172.91 97.07 185.23 96.98 Z" />
                    <path fill="#79bbdc"
                        d=" M 136.84 202.96 C 147.05 196.41 158.64 190.83 170.92 190.16 C 177.25 193.01 182.93 197.08 188.95 200.51 C 191.27 211.94 188.54 223.47 184.10 234.02 C 180.50 245.00 175.98 255.62 171.13 266.10 C 167.04 274.53 167.23 284.08 164.38 292.86 C 160.17 313.37 158.08 334.27 157.00 355.16 C 172.64 343.02 188.22 330.59 206.02 321.69 C 188.82 347.90 173.29 375.13 156.78 401.77 C 147.36 416.85 142.43 434.09 135.16 450.20 C 132.61 456.13 124.83 458.46 119.01 456.99 C 110.73 452.01 102.95 445.69 96.94 438.09 C 94.81 431.89 98.79 425.99 100.34 420.16 C 103.38 411.08 114.63 408.26 117.57 399.06 C 119.90 390.87 124.44 383.40 125.39 374.84 C 127.71 355.09 127.99 335.16 130.44 315.42 C 133.14 291.85 131.98 267.98 135.98 244.55 C 131.51 244.30 126.56 243.83 122.68 246.59 C 118.31 248.49 113.99 253.17 108.93 251.14 C 94.87 245.98 80.52 239.33 71.16 227.16 C 85.96 218.77 103.91 220.62 118.96 213.00 C 125.28 210.35 131.62 207.50 136.84 202.96 Z" />
                    <path fill="#79bbdc"
                        d=" M 290.97 212.88 C 298.07 213.24 305.52 212.13 312.48 213.62 C 317.98 219.40 322.99 225.82 329.45 230.65 C 328.86 233.56 328.33 236.50 327.76 239.42 C 338.92 243.94 351.65 244.55 363.13 240.80 C 376.01 236.03 390.19 239.29 403.49 237.19 C 411.67 232.89 420.29 228.21 429.93 229.13 C 439.87 231.33 448.12 237.42 456.77 242.40 C 455.67 247.37 456.00 256.33 449.38 257.33 C 431.99 259.10 414.48 258.77 397.03 259.21 C 376.24 260.24 355.42 261.94 334.96 265.88 C 332.11 266.60 328.62 267.11 327.27 270.16 C 320.45 280.58 314.66 291.62 308.44 302.38 C 303.14 312.13 297.09 321.86 295.50 333.06 C 296.09 336.74 298.50 339.84 299.24 343.50 C 304.12 366.73 306.38 390.43 307.17 414.13 C 324.82 413.44 342.50 412.33 360.01 409.92 C 364.24 409.69 366.37 405.54 368.28 402.32 C 372.23 391.56 373.33 380.03 376.23 369.00 C 379.77 359.87 381.21 350.15 382.77 340.54 C 364.94 342.73 347.48 347.46 330.44 353.07 C 327.78 353.81 325.17 352.42 322.73 351.53 C 314.43 348.29 308.16 341.68 301.69 335.81 C 310.30 331.15 320.14 329.64 329.49 327.11 C 343.17 323.54 357.56 326.02 371.47 324.44 C 381.77 323.63 388.58 311.99 399.68 315.33 C 412.48 320.14 423.06 330.02 430.91 341.04 C 433.10 347.40 431.63 354.58 428.63 360.49 C 424.28 369.29 425.89 379.85 421.51 388.64 C 412.36 404.31 411.77 425.68 395.39 436.44 C 382.37 441.88 369.51 431.73 356.34 434.33 C 343.41 436.50 330.42 438.20 317.50 440.41 C 310.84 440.55 306.72 446.12 302.04 450.01 C 297.58 447.86 291.78 447.61 288.71 443.26 C 281.45 435.15 281.68 423.47 280.62 413.32 C 279.99 398.59 277.78 384.01 275.51 369.46 C 264.90 377.81 259.37 390.50 250.05 400.04 C 245.88 405.23 239.94 408.54 235.44 413.36 C 231.89 418.65 229.84 424.84 225.97 429.95 C 217.81 441.09 206.47 449.21 196.34 458.41 C 192.11 462.83 185.83 459.23 180.67 458.80 C 190.48 443.74 200.12 428.48 211.67 414.67 C 216.34 409.71 217.92 402.90 221.06 397.03 C 229.74 380.05 236.77 362.18 247.11 346.08 C 254.07 335.25 257.48 322.50 265.05 312.03 C 268.00 307.73 271.77 303.66 272.31 298.19 C 274.08 290.43 276.20 282.64 276.36 274.64 C 260.59 279.13 245.74 286.39 229.96 290.84 C 223.53 293.00 216.14 293.19 210.04 289.93 C 201.38 285.29 193.01 280.12 184.24 275.67 C 184.15 274.97 183.96 273.57 183.87 272.87 C 196.85 264.03 212.77 261.45 227.96 258.91 C 244.33 257.12 260.62 254.71 276.80 251.61 C 280.22 250.80 283.49 249.47 286.75 248.18 C 286.45 236.23 288.59 224.52 290.97 212.88 Z" />
                </g>
            </g>
        </g>
    </g>
</svg>